# Blender v2.73 (sub 0) OBJ File: 'story2.blend'
# www.blender.org
mtllib story2.mtl
o 平面.001_平面.002
v 0.133857 0.000000 0.443415
v 0.042627 0.000000 0.116167
v 0.133857 0.000000 0.116167
v 0.099776 0.000000 0.524067
v 0.099991 0.000000 0.444216
v 0.093001 0.000000 0.524074
v 0.077273 0.000000 0.524027
v 0.085038 0.000000 0.529036
v 0.042513 0.000394 0.515695
v 0.092916 0.000000 0.528723
v 0.077190 0.000000 0.515469
v 0.085002 0.000000 0.524018
v -0.519655 0.000000 -0.012962
v -0.070168 0.000000 -0.012421
v -0.519655 0.000000 -0.080966
v -0.479878 0.000000 -0.080966
v -0.354685 0.000000 -0.012554
v -0.275414 0.000000 0.009809
v -0.478170 0.000000 -0.009292
v -0.070255 0.000000 0.009907
v -0.354439 0.000000 -0.009440
v -0.275590 0.000000 -0.013032
v -0.478532 0.000000 -0.012962
v -0.030629 0.000000 -0.077005
v -0.030370 0.000000 -0.012427
v -0.274437 0.000000 -0.077712
v -0.353717 0.000000 -0.108288
v -0.091774 0.000000 -0.106865
v -0.479830 0.000000 -0.107651
v -0.274388 0.000000 -0.107410
v -0.353364 0.000000 -0.077338
v -0.091822 0.000000 -0.077267
v 0.446752 0.000000 0.037501
v 0.536244 0.000000 0.023411
v 0.487410 0.000000 0.029289
v 0.487456 0.000000 0.037511
v 0.534637 0.000000 0.017474
v 0.550664 0.000000 0.026491
v 0.549309 0.000000 0.020418
v 0.555012 0.000000 0.025041
v 0.576491 0.000000 0.345370
v 0.636259 0.000000 0.328516
v 0.509912 0.000000 0.367737
v 0.576799 0.000000 0.349381
v 0.446772 0.000000 0.350965
v 0.509653 0.000000 0.351029
vt 0.550000 0.237748
vt 0.538703 0.242046
vt 0.546611 0.237744
vt 0.362784 0.538680
vt 0.362214 0.506331
vt 0.454116 0.538476
vt 0.788403 0.327167
vt 0.775455 0.486647
vt 0.743843 0.481129
vt 0.550100 0.277684
vt 0.567005 0.441755
vt 0.521378 0.441746
vt 0.567037 0.278088
vt 0.521360 0.241929
vt 0.538746 0.237766
vt 0.542611 0.237771
vt 0.542630 0.235261
vt 0.546569 0.235419
vt 0.260036 0.540287
vt 0.240142 0.540283
vt 0.240149 0.506272
vt 0.323130 0.553964
vt 0.260057 0.553633
vt 0.454137 0.553278
vt 0.362805 0.553533
vt 0.323310 0.538485
vt 0.260716 0.506276
vt 0.464952 0.506046
vt 0.484720 0.538351
vt 0.362304 0.494908
vt 0.464911 0.494879
vt 0.484856 0.506053
vt 0.322656 0.506084
vt 0.260898 0.504441
vt 0.322779 0.504527
vt 0.768242 0.488186
vt 0.743819 0.485241
vt 0.723486 0.481130
vt 0.723527 0.324356
vt 0.754976 0.324331
vt 0.755107 0.315975
vt 0.788558 0.325162
vt 0.767438 0.491155
vt 0.774776 0.489684
vt 0.818294 0.335603
vt 0.777629 0.487372
vn 0.000000 1.000000 0.000000
vn 0.011400 0.999900 0.003600
vn 0.005600 1.000000 -0.001000
usemtl マテリアル.001
s off
f 4/1/1 11/2/1 6/3/1
f 26/4/1 22/5/1 32/6/1
f 41/7/1 38/8/1 36/9/1
f 5/10/1 3/11/1 2/12/1
f 11/2/1 4/1/1 5/10/1
f 5/10/1 1/13/1 3/11/1
f 5/10/2 9/14/2 11/2/2
f 11/2/1 7/15/1 12/16/1
f 12/16/1 8/17/1 10/18/1
f 9/14/3 5/10/3 2/12/3
f 12/16/1 10/18/1 6/3/1
f 6/3/1 11/2/1 12/16/1
f 16/19/1 15/20/1 13/21/1
f 27/22/1 29/23/1 16/19/1
f 28/24/1 30/25/1 26/4/1
f 31/26/1 27/22/1 16/19/1
f 32/6/1 28/24/1 26/4/1
f 23/27/1 16/19/1 13/21/1
f 22/5/1 26/4/1 31/26/1
f 14/28/1 24/29/1 32/6/1
f 18/30/1 20/31/1 14/28/1
f 14/28/1 25/32/1 24/29/1
f 23/27/1 31/26/1 16/19/1
f 17/33/1 19/34/1 21/35/1
f 17/33/1 31/26/1 23/27/1
f 22/5/1 14/28/1 32/6/1
f 23/27/1 19/34/1 17/33/1
f 22/5/1 18/30/1 14/28/1
f 31/26/1 17/33/1 22/5/1
f 34/36/1 35/37/1 36/9/1
f 36/9/1 33/38/1 45/39/1
f 46/40/1 43/41/1 44/42/1
f 36/9/1 45/39/1 46/40/1
f 34/36/1 37/43/1 35/37/1
f 38/8/1 39/44/1 34/36/1
f 42/45/1 40/46/1 38/8/1
f 46/40/1 44/42/1 41/7/1
f 41/7/1 42/45/1 38/8/1
f 38/8/1 34/36/1 36/9/1
f 36/9/1 46/40/1 41/7/1
