# Blender v2.73 (sub 0) OBJ File: 'story0.blend'
# www.blender.org
mtllib story0.mtl
o 平面.001
v -0.217078 0.000000 0.889075
v -0.198650 0.000000 0.923896
v -0.252929 0.000000 -0.837045
v 0.335080 0.000000 -0.923743
v -0.184259 0.000000 0.926114
v -0.138465 0.000000 0.901780
v -0.104800 0.000000 0.942831
v 0.046637 0.000000 0.868396
v 0.039468 0.000000 0.587839
v 0.170209 0.000000 0.460903
v 0.449755 0.000000 0.376846
v 0.180455 0.000000 0.544567
v 0.637343 0.000000 0.330199
v 0.671514 0.000000 0.329967
v 0.585399 0.000000 0.378230
v 0.584651 0.000000 0.013687
v 0.576412 0.000000 0.348595
v 0.641987 0.000000 0.341122
v 0.468593 0.000000 0.433147
v 0.648077 0.000000 -0.327703
v 0.553800 0.000000 -0.613497
v 0.757796 0.000000 -0.104491
v 0.552368 0.000000 -0.704692
v 0.697350 0.000000 -0.296617
v 0.654478 0.000000 -0.609485
v 0.678346 0.000000 -0.081175
v 0.445690 0.000000 -0.883371
v 0.374107 0.000000 -0.891703
v 0.438969 0.000000 -0.713126
v 0.196138 0.000000 -0.987200
v 0.130048 0.000000 -0.943227
v 0.055339 0.000000 -0.905194
v -0.218107 0.000000 -0.952765
v -0.254619 0.000000 -0.933911
v -0.092820 0.000000 -0.904009
v -0.469035 0.000000 -0.725615
v -0.502916 0.000000 -0.760926
v -0.358805 0.000000 -0.799900
v -0.758382 0.000000 -0.047086
v -0.735404 0.000000 -0.040545
v -0.614979 0.000000 -0.675945
v -0.722578 0.000000 0.012508
v -0.700399 0.000000 0.022608
v -0.741871 0.000000 -0.016731
v -0.321736 0.000000 0.041541
v -0.147594 0.000000 0.040402
v -0.353219 0.000000 0.021230
v -0.323933 0.000000 0.129879
v -0.314716 0.000000 0.249668
v -0.143136 0.000000 0.130473
v -0.110186 0.000000 0.827624
v -0.137525 0.000000 0.249572
vt 0.426458 0.479901
vt 0.824051 0.663883
vt 0.718833 0.856506
vt 0.428512 0.434856
vt 0.342591 0.375380
vt 0.431457 0.375518
vt 0.408000 0.037043
vt 0.391582 0.055360
vt 0.400794 0.038559
vt 0.338045 0.434937
vt 0.430610 0.049356
vt 0.523107 0.066058
vt 0.519791 0.207287
vt 0.445093 0.085639
vt 0.323613 0.489396
vt 0.339571 0.479476
vt 0.131818 0.520406
vt 0.150196 0.489033
vt 0.447576 0.028360
vt 0.138058 0.494468
vt 0.265124 0.862690
vt 0.129556 0.508248
vt 0.584921 0.269723
vt 0.589852 0.227900
vt 0.192940 0.837736
vt 0.120753 0.523046
vt 0.326340 0.902324
vt 0.248742 0.880814
vt 0.725185 0.311724
vt 0.390523 0.975737
vt 0.372765 0.966532
vt 0.373680 0.918191
vt 0.791449 0.492682
vt 0.734218 0.283279
vt 0.792708 0.311444
vt 0.819110 0.335293
vt 0.820679 0.330068
vt 0.835866 0.335176
vt 0.788235 0.326130
vt 0.453460 0.951502
vt 0.666559 0.962452
vt 0.598547 0.993211
vt 0.563932 0.970900
vt 0.529711 0.952097
vt 0.722465 0.941243
vt 0.686405 0.945531
vt 0.839044 0.540423
vt 0.878381 0.552216
vt 0.848795 0.648257
vt 0.826846 0.804753
vt 0.776244 0.806454
vt 0.776037 0.852295
vn 0.000000 1.000000 0.000000
usemtl マテリアル.001
s off
f 46/1/1 20/2/1 29/3/1
f 50/4/1 49/5/1 52/6/1
f 5/7/1 1/8/1 2/9/1
f 50/4/1 48/10/1 49/5/1
f 6/11/1 1/8/1 5/7/1
f 8/12/1 9/13/1 51/14/1
f 47/15/1 45/16/1 46/1/1
f 51/14/1 1/8/1 6/11/1
f 40/17/1 43/18/1 47/15/1
f 51/14/1 6/11/1 7/19/1
f 40/17/1 42/20/1 43/18/1
f 51/14/1 7/19/1 8/12/1
f 36/21/1 47/15/1 46/1/1
f 9/13/1 52/6/1 51/14/1
f 40/17/1 44/22/1 42/20/1
f 9/13/1 10/23/1 52/6/1
f 9/13/1 12/24/1 10/23/1
f 10/23/1 50/4/1 52/6/1
f 36/21/1 41/25/1 47/15/1
f 40/17/1 41/25/1 39/26/1
f 46/1/1 38/27/1 36/21/1
f 36/21/1 37/28/1 41/25/1
f 11/29/1 50/4/1 10/23/1
f 47/15/1 41/25/1 40/17/1
f 33/30/1 34/31/1 3/32/1
f 3/32/1 38/27/1 46/1/1
f 16/33/1 50/4/1 11/29/1
f 11/29/1 19/34/1 15/35/1
f 13/36/1 18/37/1 14/38/1
f 11/29/1 15/35/1 17/39/1
f 13/36/1 14/38/1 16/33/1
f 16/33/1 17/39/1 13/36/1
f 16/33/1 46/1/1 50/4/1
f 35/40/1 33/30/1 3/32/1
f 4/41/1 30/42/1 31/43/1
f 32/44/1 35/40/1 3/32/1
f 29/3/1 31/43/1 32/44/1
f 29/3/1 27/45/1 28/46/1
f 28/46/1 4/41/1 31/43/1
f 32/44/1 3/32/1 46/1/1
f 11/29/1 17/39/1 16/33/1
f 26/47/1 22/48/1 24/49/1
f 20/2/1 46/1/1 16/33/1
f 20/2/1 26/47/1 24/49/1
f 20/2/1 25/50/1 21/51/1
f 16/33/1 26/47/1 20/2/1
f 29/3/1 32/44/1 46/1/1
f 21/51/1 23/52/1 29/3/1
f 29/3/1 28/46/1 31/43/1
f 29/3/1 20/2/1 21/51/1
