# Blender v2.73 (sub 0) OBJ File: 'map.blend'
# www.blender.org
mtllib map.mtl
o 平面.002
v -1.000000 0.000000 1.000000
v 1.000000 0.000000 1.000000
v -1.000000 0.000000 -1.000000
v 1.000000 0.000000 -1.000000
vt 0.000150 0.000150
vt 0.499850 0.000150
vt 0.499850 0.499850
vt 0.000150 0.499850
vn 0.000000 1.000000 0.000000
usemtl None
s off
f 1/1/1 2/2/1 4/3/1 3/4/1
o 平面.001
v -1.000000 0.150000 1.000000
v 1.000000 0.150000 1.000000
v -1.000000 0.150000 -1.000000
v 1.000000 0.150000 -1.000000
vt 0.500150 0.000150
vt 0.999850 0.000150
vt 0.999850 0.499850
vt 0.500150 0.499850
vn 0.000000 1.000000 0.000000
usemtl None
s off
f 5/5/2 6/6/2 8/7/2 7/8/2
o 平面.000
v -1.000000 0.300000 1.000000
v 1.000000 0.300000 1.000000
v -1.000000 0.300000 -1.000000
v 1.000000 0.300000 -1.000000
vt 0.000150 0.999850
vt 0.000150 0.500150
vt 0.499850 0.500150
vt 0.499850 0.999850
vn 0.000000 1.000000 0.000000
usemtl None
s off
f 9/9/3 10/10/3 12/11/3 11/12/3
